# xmcd
#
# Track frame offsets:
#	150
#	7830
#	30390
#	49842
#	60800
#	78180
#	100520
#	119245
#	136627
#	151877
#	162225
#	186175
#	198807
#	215470
#
# Disc length: 3045 seconds
#
# Revision: 0
# Processed by: cddbd v1.5.1PL2 Copyright (c) Steve Scherf et al.
# Submitted via: audiograbber 1.83.01
#
DISCID=a00be30e
DTITLE=Clifton Chenier - On Tour (Live at Le Palace, Paris)
DYEAR=1977
DGENRE=Blues
TTITLE0=Get Together
TTITLE1=No Dog Around
TTITLE2=Brown-eyed girl
TTITLE3=Eh, 'tite fille
TTITLE4=Travelin' Blues
TTITLE5=Shake It Up
TTITLE6=Come Back Baby (Let's Talk It Over)
TTITLE7=I'm Coming Home
TTITLE8=J'ai passè devant ta porte
TTITLE9=Clifton's Boogie
TTITLE10=I Have To Go
TTITLE11=In the Woods
TTITLE12=Four In the Mornin'
TTITLE13=Walkin' On the Highway
EXTD=
EXTT0=
EXTT1=
EXTT2=
EXTT3=
EXTT4=
EXTT5=
EXTT6=
EXTT7=
EXTT8=
EXTT9=
EXTT10=
EXTT11=
EXTT12=
EXTT13=
PLAYORDER=
